PathFileType	4	(X/Y/Z)	C:\Users\Basilio\Documents\Thesis Gigler\squatting_fais\c3dfiles\077\SLS_back_pre2\markers_experimental.trc
DataRate	CameraRate	NumFrames	NumMarkers	Units	OrigDataRate	OrigDataStartFrame	OrigNumFrames
200.000000	200.000000	4	60	mm	200.000000	1152	1537
Frame#	Time	FHD			RBHD			C7			T10			CLAV			LSHO			LUUPA			LMUPA			LDUPA			LLEP			LMEP			LRAD			LUL			LRFIN			RSHO			RUPA1			RMUPA			RDUPA			RLEP			RMEP			RRAD			RUL			RUFIN			LASI			RASI			USACR			LSACR			RSACR			LTHI1			LTHI2			LTHI3			LTHI4			LLFC			LMFC			LTIB1			LTIB2			LTIB3			LTIB4			LLMAL			LHEE			LMT1			LMT2			LMT5			RTHI			RTHI2			RTHI3			RTHI4			RLFC			RMFC			RTIB1			RTIB2			RTIB3			RTIB4			RLMAL			RMMAL			RHEE			RMT1			RMT2			RMT5			LBHD			
		X1	Y1	Z1	X2	Y2	Z2	X3	Y3	Z3	X4	Y4	Z4	X5	Y5	Z5	X6	Y6	Z6	X7	Y7	Z7	X8	Y8	Z8	X9	Y9	Z9	X10	Y10	Z10	X11	Y11	Z11	X12	Y12	Z12	X13	Y13	Z13	X14	Y14	Z14	X15	Y15	Z15	X16	Y16	Z16	X17	Y17	Z17	X18	Y18	Z18	X19	Y19	Z19	X20	Y20	Z20	X21	Y21	Z21	X22	Y22	Z22	X23	Y23	Z23	X24	Y24	Z24	X25	Y25	Z25	X26	Y26	Z26	X27	Y27	Z27	X28	Y28	Z28	X29	Y29	Z29	X30	Y30	Z30	X31	Y31	Z31	X32	Y32	Z32	X33	Y33	Z33	X34	Y34	Z34	X35	Y35	Z35	X36	Y36	Z36	X37	Y37	Z37	X38	Y38	Z38	X39	Y39	Z39	X40	Y40	Z40	X41	Y41	Z41	X42	Y42	Z42	X43	Y43	Z43	X44	Y44	Z44	X45	Y45	Z45	X46	Y46	Z46	X47	Y47	Z47	X48	Y48	Z48	X49	Y49	Z49	X50	Y50	Z50	X51	Y51	Z51	X52	Y52	Z52	X53	Y53	Z53	X54	Y54	Z54	X55	Y55	Z55	X56	Y56	Z56	X57	Y57	Z57	X58	Y58	Z58	X59	Y59	Z59	X60	Y60	Z60	

1153	5.76	-132.9069366455078	1810.899780273438	-1028.25146484375	-283.5879211425782	1712.272338867188	-942.2476806640627	-344.6238708496094	1578.991577148438	-1028.664794921875	-413.769500732422	1263.991088867188	-1040.92236328125	-187.5113525390625	1512.630859375	-1031.048706054688	-217.4504699707032	1560.764526367188	-1199.115966796875	-75.34890747070314	1508.182006835938	-1330.774658203125	-40.77275085449219	1532.887451171875	-1305.96923828125	-9.487078666687013	1500.751586914063	-1347.244018554688	56.33987045288087	1503.89892578125	-1352.179565429688	60.76620101928712	1432.62451171875	-1329.3017578125	360.4375000000001	1520.425048828125	-1267.17919921875	359.3625183105469	1517.730834960938	-1347.594970703125	458.0289001464845	1538.3896484375	-1283.5537109375	-211.0170440673829	1555.738159179688	-869.013610839844	-62.02756881713869	1501.95849609375	-759.9072265625001	-34.25128936767579	1530.511352539063	-788.795837402344	7.955970287323	1500.747924804688	-755.6489868164064	74.92355346679689	1505.053344726563	-765.5002441406251	76.62650299072267	1433.745727539063	-796.2772216796877	350.7157897949219	1535.992553710938	-893.9591064453127	368.9461059570313	1536.765380859375	-810.202819824219	446.1933593750001	1552.182373046875	-896.2164306640627	-281.9632263183594	1038.841064453125	-1178.820190429688	-300.8265380859376	1028.46533203125	-907.263122558594	-450.902557373047	1183.221435546875	-1048.852905273438	-467.6145629882814	1162.214721679688	-1080.797485351563	-473.8741455078126	1153.511108398438	-1025.487670898438	-341.0802917480469	830.1522216796877	-1230.279296875	-304.7008056640626	755.8023681640626	-1215.759033203125	-255.9483795166016	763.7661743164064	-1209.544555664063	-325.8583679199219	704.7187500000001	-1192.977172851563	-273.9808959960938	567.9295654296876	-1151.029296875	-285.7757263183594	563.2620849609376	-1019.246215820313	-262.6412353515626	352.2026672363282	-1052.6015625	-280.1150207519532	300.9362792968751	-1123.509399414063	-256.4416198730469	300.9302368164063	-1082.15185546875	-276.2212524414063	227.4730529785157	-1046.313232421875	-336.8023986816407	107.7377700805664	-1091.938720703125	-398.2034912109376	77.9584426879883	-1041.674072265625	-189.7845153808594	52.96700286865236	-1013.349975585938	-182.14208984375	65.23522186279298	-1054.601196289063	-319.7468872070313	124.8191452026367	-1003.939086914063	-396.6765136718751	716.3911743164064	-861.283630371094	-357.2658081054688	659.3692626953126	-860.409118652344	-323.1846923828126	661.1422729492189	-863.8911132812502	-389.0787963867189	586.9841918945314	-888.1468505859377	-408.0464782714845	553.0717773437501	-907.4530029296877	-370.9474792480469	534.1573486328126	-1025.853759765625	-517.5339965820314	520.6774291992189	-985.746520996094	-593.1349487304689	595.1765136718751	-974.3689575195315	-593.3649902343751	557.6645507812501	-1003.798889160156	-615.0524902343751	570.9654541015626	-1057.58154296875	-784.246276855469	672.4537353515626	-1081.116821289063	-737.9426879882814	656.6817016601564	-1157.698120117188	-755.7542114257814	747.8308105468751	-1114.537963867188	-847.8496093750002	569.1204833984376	-1219.120849609375	-874.1259765625002	568.5958251953126	-1192.73388671875	-914.844177246094	595.3889160156251	-1166.059326171875	-286.9128723144532	1717.460815429688	-1088.060302734375	
1154	5.765	-133.5684204101563	1810.756103515625	-1028.216552734375	-284.2221679687501	1712.494140625	-942.420104980469	-345.1490478515626	1578.981567382813	-1028.638916015625	-413.9086914062501	1263.920043945313	-1040.870483398438	-187.8446807861328	1512.807006835938	-1031.085327148438	-218.1763305664063	1560.858520507813	-1199.182495117188	-76.04338836669923	1508.80224609375	-1330.931884765625	-41.26608657836915	1533.217407226563	-1305.900634765625	-9.533020019531252	1501.049926757813	-1347.135009765625	55.85487747192384	1504.360107421875	-1352.248291015625	60.44839096069337	1432.861938476563	-1329.240234375	359.8165893554688	1521.264892578125	-1267.18310546875	359.2075805664063	1518.33203125	-1347.611083984375	457.338348388672	1538.968139648438	-1283.349731445313	-211.5343322753907	1555.820190429688	-869.0969238281252	-62.44636535644533	1502.183471679688	-759.8826293945314	-34.62620544433594	1530.7138671875	-788.6647949218752	7.437392234802248	1500.936889648438	-755.6913452148439	74.42698669433595	1505.389282226563	-765.5405883789064	76.18075561523439	1434.167114257813	-796.277038574219	350.1944885253907	1537.447021484375	-894.797546386719	368.4443054199219	1537.6845703125	-810.0473632812502	445.7689514160157	1553.248901367188	-896.1566162109377	-281.8895568847657	1038.817138671875	-1179.07177734375	-300.5727233886719	1028.469116210938	-907.435974121094	-450.7523498535157	1182.905395507813	-1048.841186523438	-467.6702575683595	1162.1552734375	-1080.701416015625	-473.9908447265626	1153.30908203125	-1025.433471679688	-341.2811279296876	830.121276855469	-1230.354370117188	-304.7758178710938	755.6691284179689	-1215.849487304688	-256.1755065917969	763.7366333007814	-1209.770141601563	-327.5731506347657	705.1173095703126	-1193.325561523438	-274.0453796386719	567.8880615234376	-1151.170776367188	-285.4975280761719	563.2395019531251	-1019.563781738281	-262.6024780273438	352.2281188964844	-1052.651489257813	-280.2423706054688	300.7054138183594	-1123.711059570313	-256.4074707031251	300.7701721191407	-1082.203369140625	-276.1696166992188	227.4668426513672	-1046.357299804688	-336.2611083984376	108.0398788452149	-1091.929443359375	-398.0593872070314	77.7665252685547	-1041.64697265625	-189.8099517822266	52.91793823242189	-1013.396606445313	-182.2063751220703	65.2310028076172	-1054.574951171875	-319.7346496582032	124.8412322998047	-1003.920837402344	-395.9012451171876	716.3488769531251	-861.3577270507815	-356.1979675292969	659.4316406250001	-860.4909667968752	-322.3815307617188	661.0450439453126	-864.0803222656252	-388.0357055664064	586.9916992187501	-888.194763183594	-406.9393005371095	552.8740234375001	-907.5354614257815	-369.9173583984376	534.0064086914064	-1025.921508789063	-516.6071777343751	520.5089721679689	-985.5306396484377	-592.1769409179689	594.8916015625001	-973.9259033203127	-592.3513183593751	557.4122924804689	-1003.399047851563	-614.3883666992189	570.7086181640626	-1057.191040039063	-783.9085693359377	671.8961791992189	-1080.33251953125	-737.6760864257814	655.9943237304689	-1156.661499023438	-755.5520629882814	747.3980102539064	-1113.747680664063	-847.7066040039065	568.3038330078126	-1218.127075195313	-873.825866699219	567.8289184570314	-1191.659301757813	-914.4040527343752	594.5358886718751	-1164.642211914063	-287.5463867187501	1717.556884765625	-1088.192626953125	
1155	5.77	-134.0164947509766	1810.74951171875	-1028.190063476563	-284.8130187988282	1712.6298828125	-942.407897949219	-345.6445312500001	1578.840576171875	-1028.68701171875	-414.1129150390626	1263.748901367188	-1040.869262695313	-188.2824859619141	1512.839721679688	-1031.118408203125	-218.8008575439454	1560.928100585938	-1199.216552734375	-76.49573516845705	1509.007934570313	-1330.764404296875	-41.73040771484376	1533.527099609375	-1305.954711914063	-9.775204658508303	1501.445068359375	-1346.973510742188	55.3548049926758	1504.753784179688	-1352.279052734375	60.01533508300783	1433.2724609375	-1329.265991210938	359.3043212890626	1521.908447265625	-1267.065063476563	357.9346923828126	1519.244018554688	-1347.512939453125	456.701629638672	1539.859008789063	-1283.161499023438	-211.9888916015626	1555.90625	-869.087829589844	-62.79638290405275	1502.508178710938	-759.8554077148439	-35.07371902465821	1531.110229492188	-788.5941162109377	7.130607128143312	1501.435913085938	-755.5484619140626	73.86495971679689	1505.695068359375	-765.5554809570314	75.79811859130861	1434.680786132813	-796.2128906250002	349.7369079589844	1538.865356445313	-895.6398925781252	367.6571044921876	1538.126220703125	-810.270935058594	445.339324951172	1554.303344726563	-896.0657958984377	-282.1088867187501	1039.0107421875	-1179.291137695313	-300.2693786621094	1028.441040039063	-907.6533813476565	-450.8733215332032	1182.82763671875	-1048.725708007813	-467.8229064941407	1162.081787109375	-1080.591552734375	-474.0265197753907	1153.12939453125	-1025.288452148438	-341.1719360351563	829.9541015625002	-1230.353271484375	-304.9275207519532	755.7119140625001	-1215.934814453125	-257.1399841308594	763.9986572265626	-1210.3857421875	-327.6194152832032	705.0712890625001	-1193.302612304688	-274.2350769042969	567.9450683593751	-1151.27294921875	-285.5303649902344	563.3708496093751	-1021.278503417969	-262.5347595214844	352.2264709472657	-1052.767578125	-280.3411254882813	300.7551879882813	-1123.7353515625	-256.4689941406251	300.7250671386719	-1082.289184570313	-276.1276550292969	227.3897705078126	-1046.36669921875	-336.3439025878907	108.1371154785157	-1091.904174804688	-398.0927734375001	77.74007415771486	-1041.661499023438	-189.823974609375	53.06482696533205	-1013.326721191406	-182.2134704589844	65.25155639648439	-1054.616943359375	-319.7446594238282	124.7395477294922	-1003.944946289063	-395.0428466796876	716.1614379882814	-861.3843994140627	-355.1265869140626	659.5667114257814	-860.561706542969	-321.2805175781251	661.4172363281251	-864.1547851562502	-387.0223999023439	586.9209594726564	-888.2410278320315	-406.0761718750001	552.7684326171876	-907.5779418945315	-369.1342163085938	534.0869750976564	-1025.846923828125	-515.6721191406251	520.2555541992189	-985.349792480469	-591.2983398437501	594.6685180664064	-973.5090942382815	-591.5713500976564	557.1583862304689	-1003.068298339844	-615.1396484375001	571.3928222656251	-1056.423828125	-783.5364379882815	671.1137084960939	-1079.508544921875	-736.7102661132814	654.9162597656251	-1155.745971679688	-755.2208251953126	746.6864013671876	-1113.0654296875	-847.162780761719	567.5640258789064	-1216.43798828125	-873.397644042969	566.9789428710939	-1190.312377929688	-913.9600830078127	593.7299194335939	-1163.442260742188	-288.1036682128907	1717.542236328125	-1088.228515625	
1156	5.775	-134.568832397461	1811.118041992188	-1028.21044921875	-285.3592834472657	1712.668212890625	-942.3814697265627	-346.1719970703126	1578.841796875	-1028.67578125	-414.2718200683595	1263.670043945313	-1040.8447265625	-188.6510162353516	1512.865966796875	-1031.13818359375	-219.0419311523438	1561.2578125	-1199.195434570313	-77.03466033935548	1509.255615234375	-1330.690551757813	-42.18202209472657	1533.770751953125	-1305.89013671875	-10.11943626403809	1501.745483398438	-1346.955078125	54.67581176757814	1505.076904296875	-1352.197387695313	59.6799659729004	1433.633544921875	-1329.242431640625	358.7993164062501	1522.461791992188	-1266.90576171875	357.3903808593751	1519.84033203125	-1347.375122070313	456.3894958496095	1540.633422851563	-1283.20849609375	-212.4266357421876	1555.977783203125	-869.1218872070315	-63.2721633911133	1502.807861328125	-759.7214355468751	-35.51914215087891	1531.211303710938	-788.6602172851565	6.657700061798097	1501.780029296875	-755.5712280273439	73.43022918701173	1506.126953125	-765.6943969726564	75.53225708007814	1435.1376953125	-796.1352539062502	349.3488464355469	1540.20068359375	-896.425476074219	367.5295104980469	1539.327392578125	-809.8543701171877	444.9674682617189	1555.037963867188	-895.894470214844	-282.3996887207032	1039.150268554688	-1179.545043945313	-299.9810180664063	1028.426025390625	-907.9238281250002	-450.977996826172	1182.679809570313	-1048.657592773438	-467.950653076172	1161.939575195313	-1080.420288085938	-474.2754211425782	1153.008056640625	-1025.156860351563	-341.4425354003907	830.0090942382815	-1230.44189453125	-305.0768737792969	755.6878662109376	-1215.974609375	-257.2455139160157	763.9301757812501	-1210.552734375	-326.8844909667969	704.8092651367189	-1193.279541015625	-274.5833129882813	567.9144897460939	-1151.451049804688	-285.2923278808594	563.2540283203126	-1021.445983886719	-262.5383911132813	352.1906433105469	-1052.866455078125	-280.3984680175782	300.7114562988282	-1123.8369140625	-256.5872192382813	300.8259277343751	-1082.432373046875	-276.1415100097657	227.3283081054688	-1046.402954101563	-336.2846984863282	108.1082611083985	-1091.957641601563	-398.0624389648439	77.71509552001955	-1041.633666992188	-189.7914733886719	53.06112289428712	-1013.374633789063	-182.132308959961	65.30326080322267	-1054.675537109375	-319.7285461425782	124.7643203735352	-1003.966430664063	-394.287567138672	715.9948120117189	-861.2275390625002	-354.2198181152344	659.4218139648439	-860.7800292968752	-320.3713684082032	661.4558105468751	-864.2744140625002	-386.1185302734376	586.7908325195314	-888.2993164062502	-404.8342590332032	552.7274169921876	-907.6373291015627	-368.4765319824219	533.9804687500001	-1025.954345703125	-514.7247314453126	519.9923706054689	-985.1545410156252	-590.5382690429689	594.3225097656251	-973.0816040039065	-590.9378051757814	556.6921997070314	-1002.706237792969	-613.5133056640626	570.4190063476564	-1056.210327148438	-783.0220336914065	670.5775146484376	-1078.573486328125	-736.4382934570314	654.3164672851564	-1154.946411132813	-754.8414306640626	746.1627807617189	-1112.3818359375	-847.0579833984377	566.9118041992189	-1215.422973632813	-873.0408325195315	566.1163330078126	-1189.261352539063	-913.8256835937502	592.9461669921876	-1162.14208984375	-288.5118408203126	1717.700805664063	-1088.1953125	
